<?xml version="1.0" encoding="UTF-8"?>
<svg id="_图层_2" data-name="图层 2" xmlns="http://www.w3.org/2000/svg" viewBox="0 0 189.55 179.04">
  <g id="_图层_1-2" data-name="图层 1">
    <path d="M76.25,109.96l-6.38,11.05,110.64.37-17.25,29.88c-6.11,10.58-15.78,11.1-21.78,11.58l-79.98.68,8.25-14.29,71.29-1.66c7.09-1.71,8.95-7.24,12.25-13.03l-91.42.33-25.5,44.17-8.32-13.66,54.29-93.88-6.36-11.01-55.64,95.63L3.09,126.25c-6.11-10.59-1.72-19.23.87-24.66L43.36,31.99l8.25,14.29-34.21,62.57c-2.06,6.99,1.8,11.37,5.16,17.12l45.42-79.33L42.48,2.47l16-.38,54.13,93.91h9.94L67.55,0h34.5c12.22,0,17.51,8.12,20.92,13.08l40.58,68.92h-16.5l-37.09-60.91c-5.02-5.28-10.74-4.13-17.4-4.09l45.99,79h51l-7.67,14.04-105.63-.08Z"/>
  </g>
</svg>